<?xml version="1.0" standalone="no"?>
<!DOCTYPE svg PUBLIC "-//W3C//DTD SVG 20010904//EN"
 "http://www.w3.org/TR/2001/REC-SVG-20010904/DTD/svg10.dtd">
<svg version="1.0" xmlns="http://www.w3.org/2000/svg"
 width="499.000000pt" height="500.000000pt" viewBox="0 0 499.000000 500.000000"
 preserveAspectRatio="xMidYMid meet">

<g transform="translate(0.000000,500.000000) scale(0.100000,-0.100000)"
fill="#000000" stroke="none">
<path d="M0 2500 l0 -2500 2495 0 2495 0 0 2500 0 2500 -2495 0 -2495 0 0
-2500z m3195 225 l0 -550 -1422 -3 -1423 -2 0 555 0 555 1423 -2 1422 -3 0
-550z m155 275 l0 -149 93 -3 92 -3 3 -32 3 -33 -140 0 -141 0 0 185 0 185 45
0 45 0 0 -150z m660 88 c0 -60 0 -61 19 -44 50 45 147 22 185 -44 42 -72 15
-189 -49 -218 -37 -17 -107 -15 -133 4 -12 8 -22 10 -22 5 0 -6 -22 -11 -50
-11 l-50 0 0 178 c0 98 3 182 7 185 3 4 26 7 50 7 l43 0 0 -62z m-204 -41 c44
-22 54 -55 54 -167 l0 -100 -44 0 c-25 0 -46 5 -48 12 -3 8 -11 7 -28 -5 -15
-10 -44 -17 -72 -17 -59 0 -96 29 -105 82 -5 32 -1 41 25 68 26 26 38 30 82
30 28 0 60 -5 72 -11 29 -16 35 -3 11 29 -22 29 -43 32 -120 19 l-43 -7 0 39
c0 37 2 40 33 44 57 9 152 0 183 -16z m685 7 c5 -3 9 -21 9 -40 0 -35 0 -35
-32 -28 -106 26 -144 -8 -43 -38 68 -20 95 -46 95 -92 0 -78 -100 -118 -211
-84 -37 10 -39 13 -39 51 0 30 3 38 14 34 74 -29 152 -31 143 -4 -2 6 -22 17
-44 23 -100 29 -136 70 -112 127 19 44 79 69 152 62 32 -2 63 -7 68 -11z m39
-389 l0 -45 -647 2 -648 3 -3 28 c-7 61 -51 57 653 57 l645 0 0 -45z m-1110
-150 c0 -23 -3 -25 -50 -25 l-50 0 0 -35 c0 -34 1 -35 40 -35 36 0 40 -2 40
-25 0 -22 -4 -25 -40 -25 l-40 0 0 -55 c0 -54 0 -55 -30 -55 l-30 0 0 140 0
140 80 0 c79 0 80 0 80 -25z m780 -116 l0 -141 -30 4 c-17 3 -33 1 -36 -4 -3
-4 -18 -8 -34 -8 -53 0 -82 78 -61 158 13 46 40 67 77 58 22 -6 24 -4 24 34 0
38 2 40 30 40 l30 0 0 -141z m-625 46 c21 -20 25 -34 25 -80 0 -86 -20 -115
-80 -115 -60 0 -80 29 -80 115 0 46 4 60 25 80 15 16 36 25 55 25 19 0 40 -9
55 -25z m406 15 c17 -9 19 -22 19 -105 0 -95 0 -95 -25 -95 -24 0 -25 2 -25
73 0 78 -9 103 -34 94 -13 -5 -16 -22 -16 -87 l0 -80 -30 0 -30 0 0 100 0 101
40 -3 c22 -1 43 1 46 5 10 10 32 9 55 -3z m379 -18 c0 -19 -7 -30 -22 -37 -20
-9 -23 -19 -26 -77 -3 -68 -3 -68 -32 -68 l-30 0 0 100 0 100 25 0 c17 0 25
-6 26 -17 0 -15 3 -14 16 5 22 31 43 28 43 -6z m-670 -67 c0 -78 2 -85 20 -85
23 0 34 44 29 119 -4 50 -3 51 24 51 l27 0 0 -99 0 -99 -67 -7 c-87 -9 -93 -2
-93 117 l0 88 30 0 30 0 0 -85z m750 28 c13 -62 23 -58 35 15 6 36 10 42 32
42 19 0 23 -4 19 -17 -3 -10 -17 -58 -31 -108 -37 -127 -44 -139 -83 -143 -27
-3 -32 0 -32 17 0 14 6 21 20 21 11 0 23 6 26 14 4 12 -22 116 -51 204 -3 8 6
12 25 12 27 0 29 -4 40 -57z"/>
<path d="M442 2728 l3 -473 1332 -3 1333 -2 0 475 0 475 -1335 0 -1335 0 2
-472z m528 234 l0 -58 -90 4 c-49 2 -110 1 -135 -2 l-45 -7 0 -60 0 -59 125 0
125 0 0 -60 0 -60 -125 0 -125 0 0 -120 0 -120 -70 0 -70 0 0 300 0 300 205 0
205 0 0 -58z m380 -142 l0 -69 -54 1 c-60 2 -94 -15 -123 -59 -13 -20 -18 -54
-21 -149 l-4 -124 -69 0 -69 0 0 230 0 230 70 0 70 0 0 -45 0 -45 36 39 c34
38 68 55 124 63 14 2 28 2 33 0 4 -2 7 -34 7 -72z m337 47 c19 -10 43 -36 55
-60 20 -38 23 -60 26 -214 l4 -173 -76 0 c-76 0 -76 0 -76 27 l0 26 -22 -20
c-36 -33 -63 -43 -113 -43 -57 0 -114 28 -137 68 -25 42 -24 135 2 177 41 67
172 87 240 36 33 -24 38 -16 19 38 -7 20 -20 33 -36 37 -25 7 -121 0 -175 -12
l-28 -6 0 65 c0 64 1 66 28 70 15 3 79 4 142 3 87 -1 123 -6 147 -19z m532 7
c13 -9 29 -30 36 -47 l13 -30 17 26 c29 45 76 67 142 67 50 0 65 -4 86 -24 34
-31 35 -38 41 -258 l5 -188 -75 0 -74 0 0 144 c0 137 -1 146 -23 172 -20 23
-27 26 -53 17 -50 -16 -64 -59 -64 -205 l0 -128 -75 0 -75 0 0 150 c0 139 -2
152 -21 171 -24 24 -62 20 -93 -11 -16 -16 -21 -41 -28 -152 -5 -73 -6 -138
-3 -145 3 -10 -14 -13 -70 -13 l-75 0 0 230 0 230 70 0 70 0 0 -35 c0 -42 6
-43 33 -9 11 15 34 32 51 40 44 19 136 18 165 -2z m738 -12 c47 -33 76 -102
81 -194 l5 -78 -144 0 -143 0 29 -30 c36 -38 75 -45 153 -27 l62 14 0 -57 c0
-69 0 -69 -117 -77 -105 -8 -164 8 -213 57 -42 42 -60 95 -60 180 0 81 16 132
54 175 50 56 79 66 176 63 69 -2 91 -7 117 -26z"/>
<path d="M1486 2594 c-22 -21 -20 -40 6 -58 61 -43 165 13 116 62 -18 18 -103
15 -122 -4z"/>
<path d="M2780 2750 c-38 -38 -27 -50 50 -50 39 0 70 3 70 6 0 11 -23 49 -34
56 -21 14 -66 8 -86 -12z"/>
<path d="M4035 2975 c-15 -14 -25 -36 -25 -53 0 -38 35 -82 65 -82 30 0 65 44
65 82 0 32 -39 78 -65 78 -9 0 -27 -11 -40 -25z"/>
<path d="M3664 2875 c-10 -24 6 -35 51 -35 42 0 64 18 49 41 -9 15 -94 11
-100 -6z"/>
<path d="M4099 2403 c-10 -26 -7 -98 5 -110 3 -3 12 -3 21 1 13 4 15 18 13 68
-3 68 -21 87 -39 41z"/>
<path d="M3499 2403 c-6 -15 -8 -47 -4 -70 5 -34 10 -43 26 -43 18 0 20 6 17
67 -3 73 -21 94 -39 46z"/>
</g>
</svg>
